<svg xmlns="http://www.w3.org/2000/svg" viewBox="-100 -2020 11612 2970"><path d="M796.33 -184.76 L553.86 -29.33 L0.00 -893.36 L242.47 -1048.79 Z" fill="#155A3B"/><path d="M843.32 0.00 L506.88 -214.10 L1592.46 -1920.00 L1928.89 -1705.90 Z" fill="#155A3B"/><g transform="translate(2559 0)"><path d="M1007.5985107421875 -381.89813232421875Q989.1986083984375 -338.09832763671875 976.4986572265625 -322.39813232421875Q963.7987060546875 -306.69793701171875 952.6487121582031 -314.797607421875Q941.4987182617188 -322.89727783203125 928.7486877441406 -351.5970458984375Q915.9986572265625 -380.29681396484375 897.4985961914062 -425.9969482421875L550.4965209960938 -1293.1018676757812Q540.0964965820312 -1319.9019165039062 546.1964721679688 -1330.9519348144531Q552.2964477539062 -1342.001953125 591.99658203125 -1342.001953125H705.7962646484375Q737.0962524414062 -1342.001953125 745.0462341308594 -1350.3519592285156Q752.9962158203125 -1358.7019653320312 752.9962158203125 -1390.4019775390625V-1452.1000366210938Q752.9962158203125 -1480.800048828125 746.7962646484375 -1490.4000244140625Q740.5963134765625 -1500.0 713.1962890625 -1500.0H40.9998779296875Q13.10003662109375 -1500.0 5.050079345703125 -1493.1499938964844Q-2.9998779296875 -1486.2999877929688 -2.9998779296875 -1458.0001220703125V-1387.001708984375Q-2.9998779296875 -1361.0018310546875 2.90008544921875 -1351.5018920898438Q8.800048828125 -1342.001953125 34.69989013671875 -1342.001953125H180.2003173828125Q214.400146484375 -1342.001953125 222.25009155273438 -1336.2019653320312Q230.10003662109375 -1330.4019775390625 239.5999755859375 -1307.402099609375L783.9008178710938 -13.09979248046875Q794.000732421875 11.70001220703125 807.0006713867188 20.850006103515625Q820.0006103515625 30.0 856.9003295898438 30.0H953.4976196289062Q978.0973510742188 30.0 989.3472595214844 24.550018310546875Q1000.59716796875 19.10003662109375 1006.6971435546875 7.950103759765625Q1012.797119140625 -3.1998291015625 1018.8970336914062 -18.69964599609375L1556.0975952148438 -1296.60205078125Q1565.99755859375 -1320.1019897460938 1577.0975341796875 -1331.0519714355469Q1588.197509765625 -1342.001953125 1623.597412109375 -1342.001953125H1743.6979370117188Q1765.4978637695312 -1342.001953125 1771.2477722167969 -1350.501953125Q1776.9976806640625 -1359.001953125 1776.9976806640625 -1379.5018920898438V-1457.3002319335938Q1776.9976806640625 -1483.4000244140625 1769.5478210449219 -1491.7000122070312Q1762.0979614257812 -1500.0 1736.8981323242188 -1500.0H1222.8986206054688Q1198.8988647460938 -1500.0 1192.9488830566406 -1492.0500793457031Q1186.9989013671875 -1484.1001586914062 1186.9989013671875 -1459.400390625V-1377.1017456054688Q1186.9989013671875 -1353.8018798828125 1194.4488830566406 -1347.9019165039062Q1201.8988647460938 -1342.001953125 1226.4987182617188 -1342.001953125H1342.6997680664062Q1384.3997802734375 -1342.001953125 1392.3998413085938 -1333.9019775390625Q1400.39990234375 -1325.802001953125 1388.7999267578125 -1297.2020263671875Z M1686.00048828125 -500.0Q1686.00048828125 -360.0 1742.9503479003906 -240.00006103515625Q1799.9002075195312 -120.0001220703125 1912.4498596191406 -47.00018310546875Q2024.99951171875 25.999755859375 2190.9989013671875 25.999755859375Q2317.9989013671875 25.999755859375 2412.6986694335938 -15.90032958984375Q2507.3984375 -57.8004150390625 2569.2481994628906 -135.900390625Q2631.0979614257812 -214.0003662109375 2659.6979370117188 -323.50006103515625Q2662.9979248046875 -336.29998779296875 2658.5479431152344 -341.1499938964844Q2654.0979614257812 -346.0 2637.2980346679688 -346.0H2533.0999145507812Q2517.199951171875 -346.0 2512.449981689453 -339.5Q2507.7000122070312 -333.0 2503.4000244140625 -322.0Q2464.5999755859375 -221.599609375 2395.549591064453 -162.999267578125Q2326.4992065429688 -104.39892578125 2220.9986572265625 -104.39892578125Q2127.5982666015625 -104.39892578125 2070.9979858398438 -154.99920654296875Q2014.397705078125 -205.5994873046875 1988.5475769042969 -289.49993896484375Q1962.6974487304688 -373.400390625 1960.8975219726562 -471.70086669921875Q1960.5975341796875 -489.30084228515625 1966.9976196289062 -495.1508483886719Q1973.397705078125 -501.0008544921875 1990.8976440429688 -501.0008544921875H2634.797607421875Q2656.3975830078125 -501.0008544921875 2663.297607421875 -506.40081787109375Q2670.1976318359375 -511.80078125 2670.1976318359375 -532.7007446289062Q2670.1976318359375 -601.9008178710938 2657.247589111328 -676.2007446289062Q2644.2975463867188 -750.5006713867188 2613.447540283203 -819.9005126953125Q2582.5975341796875 -889.3003540039062 2529.547637939453 -945.0001831054688Q2476.4977416992188 -1000.7000122070312 2396.6480407714844 -1033.3498840332031Q2316.79833984375 -1065.999755859375 2204.9989013671875 -1065.999755859375Q2031.9993896484375 -1065.999755859375 1916.6497497558594 -990.9998168945312Q1801.3001098632812 -915.9998779296875 1743.6502990722656 -787.9999389648438Q1686.00048828125 -660.0 1686.00048828125 -500.0ZM1992.5975341796875 -622.9993896484375Q1972.1976318359375 -622.9993896484375 1968.2475891113281 -628.7493591308594Q1964.2975463867188 -634.4993286132812 1965.197509765625 -651.5992431640625Q1967.2974243164062 -723.6995239257812 1993.2475891113281 -790.8999633789062Q2019.19775390625 -858.1004028320312 2070.8981323242188 -901.5507507324219Q2122.5985107421875 -945.0010986328125 2201.3990478515625 -945.0010986328125Q2253.9993896484375 -945.0010986328125 2291.849639892578 -916.0008544921875Q2329.6998901367188 -887.0006103515625 2354.6500549316406 -840.7502746582031Q2379.6002197265625 -794.4999389648438 2391.9502868652344 -742.0496520996094Q2404.3003540039062 -689.599365234375 2404.9003295898438 -642.2992553710938Q2405.5003051757812 -629.2993774414062 2401.30029296875 -626.1493835449219Q2397.1002807617188 -622.9993896484375 2376.80029296875 -622.9993896484375Z M2954.5003051757812 -860.5012817382812V-175.29876708984375Q2954.5003051757812 -152.3988037109375 2945.050323486328 -146.19879150390625Q2935.600341796875 -139.998779296875 2911.7003784179688 -139.998779296875H2805.5001831054688Q2788.4002685546875 -139.998779296875 2781.4502868652344 -134.94876098632812Q2774.5003051757812 -129.89874267578125 2774.5003051757812 -111.3988037109375V-26.19970703125Q2774.5003051757812 -9.599853515625 2782.6002807617188 -4.7999267578125Q2790.7002563476562 0.0 2807.3001098632812 0.0H3358.6974487304688Q3377.4973754882812 0.0 3381.9973754882812 -7.0999755859375Q3386.4973754882812 -14.199951171875 3386.4973754882812 -33.69989013671875V-106.29876708984375Q3386.4973754882812 -125.5987548828125 3382.6973876953125 -132.79876708984375Q3378.8973999023438 -139.998779296875 3359.8973999023438 -139.998779296875H3240.8972778320312Q3217.2973022460938 -139.998779296875 3211.8973388671875 -147.94882202148438Q3206.4973754882812 -155.89886474609375 3206.4973754882812 -179.1988525390625V-554.00048828125Q3206.4973754882812 -657.00048828125 3238.3473205566406 -745.2505798339844Q3270.197265625 -833.5006713867188 3322.947296142578 -887.2507629394531Q3375.6973266601562 -941.0008544921875 3437.6975708007812 -941.0008544921875Q3467.997802734375 -941.0008544921875 3478.347869873047 -933.9508361816406Q3488.6979370117188 -926.9008178710938 3488.6979370117188 -914.000732421875Q3488.6979370117188 -902.000732421875 3476.147979736328 -889.6007690429688Q3463.5980224609375 -877.2008056640625 3451.048065185547 -855.7508850097656Q3438.4981079101562 -834.3009643554688 3438.4981079101562 -795.0010986328125Q3438.4981079101562 -740.00146484375 3482.247772216797 -706.001708984375Q3525.9974365234375 -672.001953125 3590.4968872070312 -672.001953125Q3640.4962768554688 -672.001953125 3676.2959594726562 -698.8016967773438Q3712.0956420898438 -725.6014404296875 3731.2955322265625 -767.3011474609375Q3750.4954223632812 -809.0008544921875 3750.4954223632812 -854.000732421875Q3750.4954223632812 -954.5001831054688 3676.5457458496094 -1010.2499694824219Q3602.5960693359375 -1065.999755859375 3501.4967651367188 -1065.999755859375Q3392.6972045898438 -1065.999755859375 3323.7474670410156 -1018.7998657226562Q3254.7977294921875 -971.5999755859375 3215.1978759765625 -900.3001098632812Q3202.7978515625 -877.1000366210938 3198.6478576660156 -881.199951171875Q3194.4978637695312 -885.2998657226562 3194.4978637695312 -912.6997680664062V-1010.5000610351562Q3194.4978637695312 -1030.1000366210938 3186.047821044922 -1035.0500183105469Q3177.5977783203125 -1040.0 3159.6978149414062 -1040.0H2808.3002319335938Q2787.000244140625 -1040.0 2780.750274658203 -1032.7000122070312Q2774.5003051757812 -1025.4000244140625 2774.5003051757812 -1003.5000610351562V-935.9013061523438Q2774.5003051757812 -914.2012939453125 2779.4002685546875 -907.1012573242188Q2784.3002319335938 -900.001220703125 2806.3002319335938 -900.001220703125H2919.1002807617188Q2942.7002563476562 -900.001220703125 2948.6002807617188 -892.4012451171875Q2954.5003051757812 -884.80126953125 2954.5003051757812 -860.5012817382812Z M4105.9976806640625 -519.4000244140625Q4105.9976806640625 -627.4002685546875 4136.947845458984 -718.3506164550781Q4167.898010253906 -809.3009643554688 4222.948333740234 -864.3512268066406Q4277.9986572265625 -919.4014892578125 4349.9991455078125 -919.4014892578125Q4428.9996337890625 -919.4014892578125 4487.399963378906 -864.3512268066406Q4545.80029296875 -809.3009643554688 4577.900451660156 -718.3506164550781Q4610.0006103515625 -627.4002685546875 4610.0006103515625 -519.4000244140625Q4610.0006103515625 -411.3997802734375 4577.900451660156 -320.4494323730469Q4545.80029296875 -229.49908447265625 4487.399963378906 -174.44882202148438Q4428.9996337890625 -119.3985595703125 4349.9991455078125 -119.3985595703125Q4277.9986572265625 -119.3985595703125 4222.948333740234 -174.44882202148438Q4167.898010253906 -229.49908447265625 4136.947845458984 -320.4494323730469Q4105.9976806640625 -411.3997802734375 4105.9976806640625 -519.4000244140625ZM3834.0006103515625 -519.4000244140625Q3834.0006103515625 -346.400146484375 3894.3006591796875 -224.35018920898438Q3954.6007080078125 -102.30023193359375 4055.3007202148438 -38.150238037109375Q4156.000732421875 25.999755859375 4278.0006103515625 25.999755859375Q4385.900451660156 25.999755859375 4458.350433349609 -20.450408935546875Q4530.8004150390625 -66.90057373046875 4584.300598144531 -150.50091552734375Q4598.300598144531 -171.50091552734375 4604.150604248047 -165.55093383789062Q4610.0006103515625 -159.6009521484375 4610.0006103515625 -136.0008544921875V-36.0Q4610.0006103515625 -14.0 4615.700622558594 -7.0Q4621.400634765625 0.0 4643.100646972656 0.0H5012.3978271484375Q5032.19775390625 0.0 5037.097717285156 -5.29998779296875Q5041.9976806640625 -10.5999755859375 5041.9976806640625 -30.7999267578125V-112.1988525390625Q5041.9976806640625 -130.598876953125 5036.547637939453 -135.298828125Q5031.097595214844 -139.998779296875 5012.697570800781 -139.998779296875H4899.097595214844Q4875.297668457031 -139.998779296875 4868.647674560547 -145.89874267578125Q4861.9976806640625 -151.7987060546875 4861.9976806640625 -175.89862060546875V-1529.7000122070312Q4861.9976806640625 -1549.7000122070312 4852.59765625 -1554.8500061035156Q4843.1976318359375 -1560.0 4824.1976318359375 -1560.0H4459.300354003906Q4443.500549316406 -1560.0 4436.750579833984 -1555.7500305175781Q4430.0006103515625 -1551.5000610351562 4430.0006103515625 -1535.3002319335938V-1447.1011352539062Q4430.0006103515625 -1431.1012573242188 4433.900573730469 -1425.5512390136719Q4437.800537109375 -1420.001220703125 4453.100402832031 -1420.001220703125H4579.500549316406Q4597.700622558594 -1420.001220703125 4603.850616455078 -1416.0512390136719Q4610.0006103515625 -1412.1012573242188 4610.0006103515625 -1393.3012084960938V-916.9990234375Q4610.0006103515625 -876.6990356445312 4606.800598144531 -871.3991088867188Q4603.6005859375 -866.0991821289062 4591.700622558594 -885.9991455078125Q4544.700500488281 -970.199462890625 4467.550384521484 -1017.099609375Q4390.4002685546875 -1063.999755859375 4284.0003662109375 -1063.999755859375Q4162.00048828125 -1063.999755859375 4059.800537109375 -1000.0497741699219Q3957.6005859375 -936.0997924804688 3895.8005981445312 -814.2498474121094Q3834.0006103515625 -692.39990234375 3834.0006103515625 -519.4000244140625Z M5130.500671386719 -246.0Q5130.500671386719 -117.90008544921875 5219.3006591796875 -48.950042724609375Q5308.100646972656 20.0 5452.500183105469 20.0Q5552.500427246094 20.0 5615.550384521484 -2.750152587890625Q5678.600341796875 -25.50030517578125 5715.550140380859 -56.8004150390625Q5752.499938964844 -88.10052490234375 5773.5997314453125 -113.400390625Q5788.499694824219 -131.8004150390625 5796.099609375 -131.200439453125Q5803.699523925781 -130.6004638671875 5813.299255371094 -109.90057373046875Q5825.098937988281 -83.20068359375 5845.398620605469 -52.950531005859375Q5865.698303222656 -22.70037841796875 5906.848114013672 -1.350189208984375Q5947.9979248046875 20.0 6021.497985839844 20.0H6022.497985839844Q6078.497375488281 20.0 6124.797058105469 0.750213623046875Q6171.096740722656 -18.49957275390625 6207.446624755859 -52.749359130859375Q6243.7965087890625 -86.9991455078125 6266.7965087890625 -130.9991455078125Q6273.7965087890625 -146.9991455078125 6260.7965087890625 -154.9991455078125L6201.3974609375 -191.3985595703125Q6188.3974609375 -201.3985595703125 6178.3974609375 -184.3985595703125Q6155.097351074219 -146.09844970703125 6132.297302246094 -134.54843139648438Q6109.497253417969 -122.9984130859375 6088.497253417969 -122.9984130859375Q6067.497253417969 -122.9984130859375 6051.997253417969 -136.9984130859375Q6036.497253417969 -150.9984130859375 6036.497253417969 -180.9984130859375V-729.0006103515625Q6036.497253417969 -823.5000610351562 6002.747589111328 -898.5499572753906Q5968.9979248046875 -973.599853515625 5888.248260498047 -1016.7999267578125Q5807.498596191406 -1060.0 5667.498596191406 -1060.0Q5582.498962402344 -1060.0 5498.8992919921875 -1042.2499694824219Q5415.299621582031 -1024.4999389648438 5346.9998779296875 -989.199951171875Q5278.700134277344 -953.8999633789062 5237.600280761719 -900.800048828125Q5196.500427246094 -847.7001342773438 5196.500427246094 -777.0003662109375Q5196.500427246094 -706.5005493164062 5240.750091552734 -677.7507019042969Q5284.999755859375 -649.0008544921875 5344.499206542969 -649.0008544921875Q5404.498840332031 -649.0008544921875 5444.4984130859375 -684.2007446289062Q5484.497985839844 -719.400634765625 5484.497985839844 -777.0003662109375Q5484.497985839844 -817.5003051757812 5472.147918701172 -833.8502502441406Q5459.7978515625 -850.2001953125 5447.447784423828 -858.8501892089844Q5435.097717285156 -867.5001831054688 5435.097717285156 -883.4002685546875Q5435.097717285156 -899.200439453125 5458.748016357422 -913.1506042480469Q5482.3983154296875 -927.1007690429688 5520.298767089844 -935.5508728027344Q5558.19921875 -944.0009765625 5600.499694824219 -944.0009765625Q5670.0001220703125 -944.0009765625 5710.400207519531 -917.5508117675781Q5750.80029296875 -891.1006469726562 5767.650238037109 -843.8004150390625Q5784.500183105469 -796.5001831054688 5784.500183105469 -734.0V-621.0001220703125Q5784.500183105469 -603.0001220703125 5780.000183105469 -599.0001220703125Q5775.500183105469 -595.0001220703125 5758.500183105469 -595.0001220703125H5669.499816894531Q5497.499816894531 -595.0001220703125 5377.250030517578 -549.2999877929688Q5257.000244140625 -503.599853515625 5193.750457763672 -424.7998046875Q5130.500671386719 -345.999755859375 5130.500671386719 -246.0ZM5415.497375488281 -278.9998779296875Q5415.497375488281 -344.0003662109375 5444.297424316406 -392.8506164550781Q5473.097473144531 -441.70086669921875 5533.697814941406 -469.1009521484375Q5594.298156738281 -496.50103759765625 5689.299011230469 -496.50103759765625H5764.500183105469Q5784.500183105469 -496.50103759765625 5784.500183105469 -476.50103759765625V-382.0Q5784.500183105469 -257.09954833984375 5726.949676513672 -190.59912109375Q5669.399169921875 -124.09869384765625 5578.498718261719 -124.09869384765625Q5512.498352050781 -124.09869384765625 5463.997863769531 -160.54891967773438Q5415.497375488281 -196.9991455078125 5415.497375488281 -278.9998779296875Z M6967.096984863281 -192.0001220703125Q6974.1968994140625 -206.2000732421875 6969.096923828125 -212.70001220703125Q6963.9969482421875 -219.199951171875 6949.297058105469 -225.89984130859375L6902.59765625 -249.49932861328125Q6885.697692871094 -256.999267578125 6879.447723388672 -253.54928588867188Q6873.19775390625 -250.09930419921875 6864.997802734375 -234.79931640625Q6838.3978271484375 -183.1990966796875 6806.747711181641 -157.19891357421875Q6775.097595214844 -131.19873046875 6737.1973876953125 -131.19873046875Q6698.3973388671875 -131.19873046875 6676.197265625 -157.89874267578125Q6653.9971923828125 -184.5987548828125 6653.9971923828125 -242.1988525390625V-867.001220703125Q6653.9971923828125 -887.9013061523438 6663.547210693359 -893.9512634277344Q6673.097229003906 -900.001220703125 6692.297302246094 -900.001220703125H6904.497619628906Q6921.297668457031 -900.001220703125 6928.647674560547 -904.1011962890625Q6935.9976806640625 -908.201171875 6935.9976806640625 -924.7012329101562V-1008.4999389648438Q6935.9976806640625 -1028.2999877929688 6929.947662353516 -1034.1499938964844Q6923.897644042969 -1040.0 6905.3975830078125 -1040.0H6690.897277832031Q6670.697326660156 -1040.0 6662.347259521484 -1046.0499572753906Q6653.9971923828125 -1052.0999145507812 6653.9971923828125 -1073.6998901367188V-1313.799072265625Q6653.9971923828125 -1343.9990234375 6625.5972900390625 -1343.9990234375H6556.897888183594Q6533.097961425781 -1343.9990234375 6528.547943115234 -1337.6990356445312Q6523.9979248046875 -1331.3990478515625 6519.697937011719 -1312.59912109375Q6498.497985839844 -1218.3994140625 6473.998291015625 -1163.3495788574219Q6449.498596191406 -1108.2997436523438 6418.048980712891 -1082.0498352050781Q6386.599365234375 -1055.7999267578125 6344.949676513672 -1047.8999633789062Q6303.299987792969 -1040.0 6247.800048828125 -1040.0Q6227.60009765625 -1040.0 6221.800109863281 -1035.4500427246094Q6216.0001220703125 -1030.9000854492188 6216.0001220703125 -1010.400146484375V-930.6011962890625Q6216.0001220703125 -910.9011840820312 6222.550140380859 -905.4512023925781Q6229.100158691406 -900.001220703125 6249.2001953125 -900.001220703125H6370.900085449219Q6390.100036621094 -900.001220703125 6396.050079345703 -891.8512268066406Q6402.0001220703125 -883.7012329101562 6402.0001220703125 -864.5012817382812V-201.998779296875Q6402.0001220703125 -95.69976806640625 6459.649688720703 -34.349945068359375Q6517.299255371094 26.9998779296875 6645.3984375 26.9998779296875Q6736.897888183594 26.9998779296875 6799.09765625 -3.550079345703125Q6861.297424316406 -34.10003662109375 6901.647308349609 -84.25003051757812Q6941.9971923828125 -134.4000244140625 6967.096984863281 -192.0001220703125Z M7187.0003662109375 -1394.000244140625Q7187.0003662109375 -1329.1008911132812 7232.999938964844 -1288.0511169433594Q7278.99951171875 -1247.0013427734375 7342.9989013671875 -1247.0013427734375Q7407.698303222656 -1247.0013427734375 7453.347869873047 -1288.0511169433594Q7498.9974365234375 -1329.1008911132812 7498.9974365234375 -1394.000244140625Q7498.9974365234375 -1459.599609375 7453.347869873047 -1500.2993774414062Q7407.698303222656 -1540.9991455078125 7342.9989013671875 -1540.9991455078125Q7278.99951171875 -1540.9991455078125 7232.999938964844 -1500.2993774414062Q7187.0003662109375 -1459.599609375 7187.0003662109375 -1394.000244140625ZM7204.500305175781 -900.001220703125Q7227.0003662109375 -900.001220703125 7227.0003662109375 -875.4012451171875V-166.1988525390625Q7227.0003662109375 -150.1988525390625 7223.400390625 -145.09881591796875Q7219.8004150390625 -139.998779296875 7203.100402832031 -139.998779296875H7078.200439453125Q7060.200439453125 -139.998779296875 7053.600402832031 -134.998779296875Q7047.0003662109375 -129.998779296875 7047.0003662109375 -110.29876708984375V-24.29998779296875Q7047.0003662109375 -8.29998779296875 7053.250396728516 -4.149993896484375Q7059.500427246094 0.0 7075.900451660156 0.0H7634.297668457031Q7650.99755859375 0.0 7654.997497558594 -4.850006103515625Q7658.9974365234375 -9.70001220703125 7658.9974365234375 -26.09991455078125V-118.798828125Q7658.9974365234375 -133.69879150390625 7653.847442626953 -136.84878540039062Q7648.697448730469 -139.998779296875 7633.7974853515625 -139.998779296875H7499.9974365234375Q7487.097473144531 -139.998779296875 7483.047454833984 -145.34878540039062Q7478.9974365234375 -150.69879150390625 7478.9974365234375 -164.29876708984375V-1019.2999877929688Q7478.9974365234375 -1032.5999755859375 7474.8974609375 -1036.2999877929688Q7470.7974853515625 -1040.0 7458.197509765625 -1040.0H7072.80029296875Q7047.0003662109375 -1040.0 7047.0003662109375 -1013.4000244140625V-922.80126953125Q7047.0003662109375 -908.4012451171875 7051.050323486328 -904.2012329101562Q7055.100280761719 -900.001220703125 7069.500305175781 -900.001220703125Z M7739.500671386719 -246.0Q7739.500671386719 -117.90008544921875 7828.3006591796875 -48.950042724609375Q7917.100646972656 20.0 8061.500183105469 20.0Q8161.500427246094 20.0 8224.550384521484 -2.750152587890625Q8287.600341796875 -25.50030517578125 8324.55014038086 -56.8004150390625Q8361.499938964844 -88.10052490234375 8382.599731445312 -113.400390625Q8397.499694824219 -131.8004150390625 8405.099609375 -131.200439453125Q8412.699523925781 -130.6004638671875 8422.299255371094 -109.90057373046875Q8434.098937988281 -83.20068359375 8454.398620605469 -52.950531005859375Q8474.698303222656 -22.70037841796875 8515.848114013672 -1.350189208984375Q8556.997924804688 20.0 8630.497985839844 20.0H8631.497985839844Q8687.497375488281 20.0 8733.797058105469 0.750213623046875Q8780.096740722656 -18.49957275390625 8816.44662475586 -52.749359130859375Q8852.796508789062 -86.9991455078125 8875.796508789062 -130.9991455078125Q8882.796508789062 -146.9991455078125 8869.796508789062 -154.9991455078125L8810.3974609375 -191.3985595703125Q8797.3974609375 -201.3985595703125 8787.3974609375 -184.3985595703125Q8764.097351074219 -146.09844970703125 8741.297302246094 -134.54843139648438Q8718.497253417969 -122.9984130859375 8697.497253417969 -122.9984130859375Q8676.497253417969 -122.9984130859375 8660.997253417969 -136.9984130859375Q8645.497253417969 -150.9984130859375 8645.497253417969 -180.9984130859375V-729.0006103515625Q8645.497253417969 -823.5000610351562 8611.747589111328 -898.5499572753906Q8577.997924804688 -973.599853515625 8497.248260498047 -1016.7999267578125Q8416.498596191406 -1060.0 8276.498596191406 -1060.0Q8191.498962402344 -1060.0 8107.8992919921875 -1042.2499694824219Q8024.299621582031 -1024.4999389648438 7955.9998779296875 -989.199951171875Q7887.700134277344 -953.8999633789062 7846.600280761719 -900.800048828125Q7805.500427246094 -847.7001342773438 7805.500427246094 -777.0003662109375Q7805.500427246094 -706.5005493164062 7849.750091552734 -677.7507019042969Q7893.999755859375 -649.0008544921875 7953.499206542969 -649.0008544921875Q8013.498840332031 -649.0008544921875 8053.4984130859375 -684.2007446289062Q8093.497985839844 -719.400634765625 8093.497985839844 -777.0003662109375Q8093.497985839844 -817.5003051757812 8081.147918701172 -833.8502502441406Q8068.7978515625 -850.2001953125 8056.447784423828 -858.8501892089844Q8044.097717285156 -867.5001831054688 8044.097717285156 -883.4002685546875Q8044.097717285156 -899.200439453125 8067.748016357422 -913.1506042480469Q8091.3983154296875 -927.1007690429688 8129.298767089844 -935.5508728027344Q8167.19921875 -944.0009765625 8209.499694824219 -944.0009765625Q8279.000122070312 -944.0009765625 8319.400207519531 -917.5508117675781Q8359.80029296875 -891.1006469726562 8376.65023803711 -843.8004150390625Q8393.500183105469 -796.5001831054688 8393.500183105469 -734.0V-621.0001220703125Q8393.500183105469 -603.0001220703125 8389.000183105469 -599.0001220703125Q8384.500183105469 -595.0001220703125 8367.500183105469 -595.0001220703125H8278.499816894531Q8106.499816894531 -595.0001220703125 7986.250030517578 -549.2999877929688Q7866.000244140625 -503.599853515625 7802.750457763672 -424.7998046875Q7739.500671386719 -345.999755859375 7739.500671386719 -246.0ZM8024.497375488281 -278.9998779296875Q8024.497375488281 -344.0003662109375 8053.297424316406 -392.8506164550781Q8082.097473144531 -441.70086669921875 8142.697814941406 -469.1009521484375Q8203.298156738281 -496.50103759765625 8298.299011230469 -496.50103759765625H8373.500183105469Q8393.500183105469 -496.50103759765625 8393.500183105469 -476.50103759765625V-382.0Q8393.500183105469 -257.09954833984375 8335.949676513672 -190.59912109375Q8278.399169921875 -124.09869384765625 8187.498718261719 -124.09869384765625Q8121.498352050781 -124.09869384765625 8072.997863769531 -160.54891967773438Q8024.497375488281 -196.9991455078125 8024.497375488281 -278.9998779296875Z" fill="#191D19"/></g></svg>